Coordinates
version=1
nRows=12
nColumns=38
inDegrees=yes

Units are S.I. units (second, meters, Newtons, ...)
If the header above contains a line with 'inDegrees', this indicates whether rotational values are in degrees (yes) or radians (no).

endheader
time	pelvis_tilt	pelvis_list	pelvis_rotation	pelvis_tx	pelvis_ty	pelvis_tz	hip_flexion_r	hip_adduction_r	hip_rotation_r	knee_angle_r	knee_angle_r_beta	ankle_angle_r	subtalar_angle_r	mtp_angle_r	hip_flexion_l	hip_adduction_l	hip_rotation_l	knee_angle_l	knee_angle_l_beta	ankle_angle_l	subtalar_angle_l	mtp_angle_l	lumbar_extension	lumbar_bending	lumbar_rotation	arm_flex_r	arm_add_r	arm_rot_r	elbow_flex_r	pro_sup_r	radius_hand_r_lock	arm_flex_l	arm_add_l	arm_rot_l	elbow_flex_l	pro_sup_l	radius_hand_l_lock
      5.32500000	    -86.02200279	      6.69820152	   -179.54231346	      0.92327763	      0.43186227	     -0.59960358	     10.42500210	      1.13447863	    -13.55445525	     11.53000727	      0.20123659	     15.40736746	      3.39796502	     -7.49999987	     12.81985483	    -15.00783833	    -17.57653333	     21.62560881	      0.37743808	     28.77874251	     13.73571459	     -7.49999987	    -20.01466320	      8.98449847	      1.60144335	      8.69890011	     -8.07576774	     -0.43960331	     18.94096310	     94.91226644	      0.00000000	      6.51501328	     -5.87347375	      4.05431370	     23.76725003	    103.49150017	      0.00000000
      5.33333333	    -86.23665194	      6.83231832	   -179.38036487	      0.92298538	      0.43393213	     -0.59907347	     10.22836143	      1.18853631	    -14.07760315	     11.87303891	      0.20722362	     15.22599038	      3.71276986	     -7.49999987	     12.66385236	    -15.14351152	    -17.39842119	     21.84816181	      0.38132236	     28.62747484	     14.07717019	     -7.49999987	    -20.00941257	      9.19052627	      1.68249370	      9.55027802	     -8.08960992	      0.25033302	     19.12488793	     93.44193897	      0.00000000	      7.48381886	     -5.83647301	      4.98210010	     23.69047849	    101.73436544	      0.00000000
      5.34166667	    -86.98491543	      6.42936363	   -179.55357772	      0.92401264	      0.43695247	     -0.59898206	      9.18831081	      0.93337156	    -12.79696033	     11.75308133	      0.20512997	     14.74519913	      2.46650474	     -7.49999987	     11.19841821	    -14.35970927	    -16.90883231	     21.02704660	      0.36699120	     28.01267963	     12.88954675	     -7.49999987	    -20.58348208	      8.67217370	      1.90808612	     10.46136152	     -7.90330591	     -0.01662378	     19.26799745	     94.36014154	      0.00000000	      8.31532805	     -5.80183116	      4.49093217	     23.87116469	    102.53253847	      0.00000000
      5.35000000	    -87.32002056	      6.73097863	   -179.60106149	      0.92403308	      0.43943902	     -0.59928478	      8.69802643	      1.35786837	    -12.41246277	     11.78985560	      0.20577180	     14.66940062	      1.97666683	     -7.49999987	     10.83916609	    -14.79281791	    -17.08907713	     21.37923920	      0.37313812	     28.14208978	     13.20768603	     -7.49999987	    -20.70266324	      8.99906145	      2.23449440	     11.25027956	     -7.80096680	     -0.97646133	     19.62539530	     97.05796716	      0.00000000	      9.30278117	     -5.73994468	      4.65996533	     23.70935147	    105.08044335	      0.00000000
      5.35833333	    -87.14407960	      7.74397857	   -179.68680422	      0.92348028	      0.44032569	     -0.60033956	      8.70981126	      2.63373858	    -12.49453331	     11.45008029	      0.19984160	     14.23168031	      1.98755190	     -7.49999987	     11.57673152	    -16.18686710	    -16.80491453	     22.40085605	      0.39096869	     28.34736185	     13.22565783	     -7.49999987	    -20.47065895	     10.08972571	      2.72732370	     12.27606089	     -7.92003643	     -0.71758702	     19.89596808	     97.32703494	      0.00000000	     10.31969172	     -5.49237761	      5.14772247	     23.63103061	    104.90192943	      0.00000000
      5.36666667	    -87.60775106	      7.65007718	   -179.90299837	      0.92411005	      0.44288580	     -0.60045463	      8.06623146	      2.62298226	    -11.82978301	     11.51484957	      0.20097204	     14.16681549	      1.49770160	     -7.49999987	     10.73544017	    -16.03714625	    -16.70713837	     22.26331109	      0.38856808	     28.23495988	     12.67900370	     -7.49999987	    -20.78754917	      9.95464267	      3.02333544	     13.27609664	     -7.94233017	     -0.24332096	     20.14357077	     97.79351692	      0.00000000	     11.31131758	     -5.40403213	      5.53827618	     23.60077109	    104.89052293	      0.00000000
      5.37500000	    -87.91188271	      7.82500198	   -180.02524582	      0.92430057	      0.44527062	     -0.60078280	      7.55954778	      2.94422972	    -11.23973419	     11.46471804	      0.20009708	     13.96815167	      0.84611630	     -7.49999987	     10.32270071	    -16.36616924	    -16.84977620	     22.60469406	      0.39452634	     28.24428060	     12.59081601	     -7.49999987	    -20.91234261	     10.10254769	      3.36296724	     14.14255605	     -7.95192566	     -0.07939387	     20.52574318	     98.24366824	      0.00000000	     12.31325113	     -5.41969107	      6.07956871	     23.69330686	    105.15314813	      0.00000000
      5.38333333	    -87.95750799	      8.42956299	   -179.90350672	      0.92372687	      0.44713737	     -0.60090184	      7.34524723	      3.72171649	    -10.95043234	     11.33160373	      0.19777379	     13.68410975	      0.21226738	     -7.49999987	     10.64436678	    -17.37095541	    -17.17548804	     23.54447240	      0.41092856	     28.55788523	     13.25098071	     -7.49999987	    -20.74280320	     10.79245685	      3.55312343	     15.05245668	     -8.04865274	      0.50010475	     20.79170811	     97.96732939	      0.00000000	     13.26617689	     -5.33665090	      6.20364069	     23.83622583	    105.54410916	      0.00000000
      5.39166667	    -88.06699887	      9.12118079	   -179.78901332	      0.92325106	      0.44929529	     -0.60113302	      6.99399075	      4.63930396	    -10.44495536	     11.06852435	      0.19318219	     13.29634619	     -0.63535613	     -7.49999987	     10.81860028	    -18.49825574	    -17.62469094	     24.35507356	      0.42507622	     28.84138511	     14.14145961	     -7.49999987	    -20.62515757	     11.56986710	      3.78005568	     16.03962923	     -8.17200288	      1.58335373	     20.93103276	     96.64352251	      0.00000000	     14.15255232	     -5.21662829	      6.75449185	     23.90079549	    105.03108290	      0.00000000
      5.40000000	    -88.30155036	      9.26112770	   -179.90759777	      0.92324837	      0.45194720	     -0.60128884	      6.60141213	      4.83593581	    -10.26684444	     11.16410168	      0.19485033	     13.39886949	     -0.70470555	     -7.49999987	     10.41829428	    -18.79955703	    -18.12901410	     24.56403772	      0.42872334	     28.91843777	     14.59266296	     -7.49999987	    -20.63012569	     11.70411785	      4.06046077	     16.93927296	     -8.19543478	      1.92230308	     21.15732142	     97.02843657	      0.00000000	     15.00064390	     -5.02713832	      6.75907910	     23.88185471	    105.46988885	      0.00000000
      5.40833333	    -88.82708719	      9.00784457	   -180.09721669	      0.92421338	      0.45487848	     -0.60143590	      5.92677089	      4.51830439	    -10.31769510	     11.49673590	      0.20065589	     13.43711829	     -0.26969651	     -7.49999987	      9.39660834	    -18.47172814	    -18.42418327	     24.25874491	      0.42339497	     28.27662888	     14.54091563	     -7.49999987	    -20.90695044	     11.39118015	      4.41125485	     17.79767774	     -8.14569684	      1.45325324	     21.37396406	     97.61198090	      0.00000000	     16.07776384	     -5.03718603	      7.15372663	     23.72804179	    105.71863846	      0.00000000
      5.41666667	    -88.98492590	      9.20467119	   -180.18680941	      0.92411887	      0.45743320	     -0.60195603	      5.63473085	      4.79213354	    -10.06086954	     11.63650284	      0.20309529	     13.55456988	     -0.52502950	     -7.49999987	      9.27958739	    -18.90206124	    -18.81928437	     24.82351703	      0.43325210	     28.53674132	     14.93552473	     -7.49999987	    -20.80244775	     11.56879484	      4.71744048	     18.66654591	     -8.16257509	      1.89149364	     21.58134579	     97.42756077	      0.00000000	     17.05558251	     -5.12285104	      7.87047409	     23.76775669	    105.28311310	      0.00000000
